{
	"asset":{
		"generator":"Khronos glTF Blender I/O v3.6.27",
		"version":"2.0"
	},
	"scene":0,
	"scenes":[
		{
			"name":"Scene",
			"nodes":[
				0,
				1,
				2,
				3,
				4,
				5,
				6,
				7,
				8
			]
		}
	],
	"nodes":[
		{
			"mesh":0,
			"name":"polySurface26_lambert1_0",
			"rotation":[
				0,
				0.44573402404785156,
				0,
				0.8951654434204102
			],
			"scale":[
				0.016023777425289154,
				0.011462767608463764,
				0.015604552812874317
			],
			"translation":[
				-0.07268418371677399,
				-1.1925907135009766,
				0.04475279897451401
			]
		},
		{
			"mesh":1,
			"name":"Object_9",
			"rotation":[
				0,
				0.44573402404785156,
				0,
				0.8951654434204102
			],
			"translation":[
				0.1418100893497467,
				-1.4937043190002441,
				0.02581639587879181
			]
		},
		{
			"mesh":2,
			"name":"Object_10",
			"rotation":[
				0,
				0.44573402404785156,
				0,
				0.8951654434204102
			],
			"translation":[
				0.1418100893497467,
				-1.4937043190002441,
				0.02581639587879181
			]
		},
		{
			"mesh":3,
			"name":"cake",
			"rotation":[
				0,
				0.44573402404785156,
				0,
				0.8951654434204102
			],
			"scale":[
				0.7194707989692688,
				0.19775879383087158,
				0.7194707989692688
			],
			"translation":[
				-0.07889954745769501,
				1.5964586734771729,
				0.03551547974348068
			]
		},
		{
			"mesh":4,
			"name":"polySurface26_lambert1_0.001",
			"rotation":[
				0,
				0.44573402404785156,
				0,
				0.8951654434204102
			],
			"scale":[
				0.012093733064830303,
				0.007954346016049385,
				0.012513778172433376
			],
			"translation":[
				-0.07268418371677399,
				-0.042694926261901855,
				0.04475279897451401
			]
		},
		{
			"mesh":5,
			"name":"cake.001",
			"rotation":[
				0,
				0.44573402404785156,
				0,
				0.8951654434204102
			],
			"scale":[
				0.6620807647705078,
				0.01934616081416607,
				0.6193283796310425
			],
			"translation":[
				-0.05105177313089371,
				1.6188735961914062,
				0.045951515436172485
			]
		},
		{
			"mesh":6,
			"name":"cake.002",
			"rotation":[
				0,
				0.44573402404785156,
				0,
				0.8951654434204102
			],
			"scale":[
				0.6904807090759277,
				0.015698276460170746,
				0.6904807090759277
			],
			"translation":[
				-0.08603997528553009,
				1.6175847053527832,
				0.04822931066155434
			]
		},
		{
			"mesh":7,
			"name":"cake.004",
			"rotation":[
				0,
				0.44573402404785156,
				0,
				0.8951654434204102
			],
			"scale":[
				0.6861932873725891,
				0.12065227329730988,
				0.6861932873725891
			],
			"translation":[
				-0.08148733526468277,
				1.614494800567627,
				0.03857388719916344
			]
		},
		{
			"mesh":8,
			"name":"cake.005",
			"rotation":[
				0,
				0.44573408365249634,
				0,
				0.8951654434204102
			],
			"scale":[
				0.6782979965209961,
				0.11874913424253464,
				0.6782979965209961
			],
			"translation":[
				-0.08732695132493973,
				1.6153926849365234,
				0.025062162429094315
			]
		}
	],
	"materials":[
		{
			"doubleSided":true,
			"name":"lambert1",
			"pbrMetallicRoughness":{
				"metallicFactor":0,
				"roughnessFactor":0.5
			}
		},
		{
			"doubleSided":true,
			"name":"Material.003",
			"pbrMetallicRoughness":{
				"baseColorFactor":[
					0.800000011920929,
					0.13182200491428375,
					0.17136099934577942,
					1
				],
				"metallicFactor":0,
				"roughnessFactor":0.21818199753761292
			}
		},
		{
			"doubleSided":true,
			"name":"Material.002",
			"pbrMetallicRoughness":{
				"metallicFactor":0,
				"roughnessFactor":0.5
			}
		},
		{
			"doubleSided":true,
			"name":"lambert1.001",
			"pbrMetallicRoughness":{
				"metallicFactor":0,
				"roughnessFactor":0.5
			}
		},
		{
			"doubleSided":true,
			"name":"Material.011",
			"pbrMetallicRoughness":{
				"metallicFactor":0,
				"roughnessFactor":0.5
			}
		},
		{
			"doubleSided":true,
			"name":"Material.014",
			"pbrMetallicRoughness":{
				"metallicFactor":0,
				"roughnessFactor":0.5
			}
		},
		{
			"doubleSided":true,
			"name":"Material.016",
			"pbrMetallicRoughness":{
				"metallicFactor":0,
				"roughnessFactor":0.5
			}
		},
		{
			"doubleSided":true,
			"name":"Material.017",
			"pbrMetallicRoughness":{
				"metallicFactor":0,
				"roughnessFactor":0.5
			}
		}
	],
	"meshes":[
		{
			"name":"polySurface26_lambert1_0",
			"primitives":[
				{
					"attributes":{
						"POSITION":0,
						"NORMAL":1,
						"TEXCOORD_0":2
					},
					"indices":3,
					"material":0
				}
			]
		},
		{
			"name":"Object_5",
			"primitives":[
				{
					"attributes":{
						"POSITION":4,
						"NORMAL":5,
						"TEXCOORD_0":6
					},
					"indices":7,
					"material":1
				}
			]
		},
		{
			"name":"Object_6.001",
			"primitives":[
				{
					"attributes":{
						"POSITION":8,
						"NORMAL":9,
						"TEXCOORD_0":10
					},
					"indices":11,
					"material":1
				}
			]
		},
		{
			"name":"Cylinder.002",
			"primitives":[
				{
					"attributes":{
						"POSITION":12,
						"NORMAL":13,
						"TEXCOORD_0":14
					},
					"indices":15,
					"material":2
				}
			]
		},
		{
			"name":"polySurface26_lambert1_0.001",
			"primitives":[
				{
					"attributes":{
						"POSITION":16,
						"NORMAL":17,
						"TEXCOORD_0":18
					},
					"indices":3,
					"material":3
				}
			]
		},
		{
			"name":"Cylinder.003",
			"primitives":[
				{
					"attributes":{
						"POSITION":19,
						"NORMAL":20,
						"TEXCOORD_0":21
					},
					"indices":22,
					"material":4
				}
			]
		},
		{
			"name":"Cylinder.005",
			"primitives":[
				{
					"attributes":{
						"POSITION":23,
						"NORMAL":24,
						"TEXCOORD_0":25
					},
					"indices":26,
					"material":5
				}
			]
		},
		{
			"name":"Cylinder.007",
			"primitives":[
				{
					"attributes":{
						"POSITION":27,
						"NORMAL":28,
						"TEXCOORD_0":29
					},
					"indices":26,
					"material":6
				}
			]
		},
		{
			"name":"Cylinder.008",
			"primitives":[
				{
					"attributes":{
						"POSITION":30,
						"NORMAL":31,
						"TEXCOORD_0":32
					},
					"indices":22,
					"material":7
				}
			]
		}
	],
	"accessors":[
		{
			"bufferView":0,
			"componentType":5126,
			"count":143,
			"max":[
				72.32532501220703,
				189.1346435546875,
				72.17633056640625
			],
			"min":[
				-72.2742691040039,
				122.94266510009766,
				-72.42329406738281
			],
			"type":"VEC3"
		},
		{
			"bufferView":1,
			"componentType":5126,
			"count":143,
			"type":"VEC3"
		},
		{
			"bufferView":2,
			"componentType":5126,
			"count":143,
			"type":"VEC2"
		},
		{
			"bufferView":3,
			"componentType":5123,
			"count":540,
			"type":"SCALAR"
		},
		{
			"bufferView":4,
			"componentType":5126,
			"count":67447,
			"max":[
				1.2588626146316528,
				1.7365484237670898,
				1.181904911994934
			],
			"min":[
				-1.4738045930862427,
				0.012106895446777344,
				-1.5507622957229614
			],
			"type":"VEC3"
		},
		{
			"bufferView":5,
			"componentType":5126,
			"count":67447,
			"type":"VEC3"
		},
		{
			"bufferView":6,
			"componentType":5126,
			"count":67447,
			"type":"VEC2"
		},
		{
			"bufferView":7,
			"componentType":5125,
			"count":199035,
			"type":"SCALAR"
		},
		{
			"bufferView":8,
			"componentType":5126,
			"count":18829,
			"max":[
				0.557042121887207,
				0.4187312126159668,
				0.523099958896637
			],
			"min":[
				-0.8021340370178223,
				0.012104272842407227,
				-0.8847900032997131
			],
			"type":"VEC3"
		},
		{
			"bufferView":9,
			"componentType":5126,
			"count":18829,
			"type":"VEC3"
		},
		{
			"bufferView":10,
			"componentType":5126,
			"count":18829,
			"type":"VEC2"
		},
		{
			"bufferView":11,
			"componentType":5123,
			"count":49797,
			"type":"SCALAR"
		},
		{
			"bufferView":12,
			"componentType":5126,
			"count":488,
			"max":[
				1,
				1,
				1
			],
			"min":[
				-1,
				-1,
				-1
			],
			"type":"VEC3"
		},
		{
			"bufferView":13,
			"componentType":5126,
			"count":488,
			"type":"VEC3"
		},
		{
			"bufferView":14,
			"componentType":5126,
			"count":488,
			"type":"VEC2"
		},
		{
			"bufferView":15,
			"componentType":5123,
			"count":1812,
			"type":"SCALAR"
		},
		{
			"bufferView":16,
			"componentType":5126,
			"count":143,
			"max":[
				72.32532501220703,
				189.1346435546875,
				72.17633056640625
			],
			"min":[
				-72.2742691040039,
				122.94266510009766,
				-72.42329406738281
			],
			"type":"VEC3"
		},
		{
			"bufferView":17,
			"componentType":5126,
			"count":143,
			"type":"VEC3"
		},
		{
			"bufferView":18,
			"componentType":5126,
			"count":143,
			"type":"VEC2"
		},
		{
			"bufferView":19,
			"componentType":5126,
			"count":172,
			"max":[
				0.002046432578936219,
				1,
				1
			],
			"min":[
				-0.9807852506637573,
				-1,
				-1.0433511832275144e-09
			],
			"type":"VEC3"
		},
		{
			"bufferView":20,
			"componentType":5126,
			"count":172,
			"type":"VEC3"
		},
		{
			"bufferView":21,
			"componentType":5126,
			"count":172,
			"type":"VEC2"
		},
		{
			"bufferView":22,
			"componentType":5123,
			"count":594,
			"type":"SCALAR"
		},
		{
			"bufferView":23,
			"componentType":5126,
			"count":210,
			"max":[
				1,
				1,
				0.7071067690849304
			],
			"min":[
				-4.371138828673793e-08,
				-1,
				-0.9807852506637573
			],
			"type":"VEC3"
		},
		{
			"bufferView":24,
			"componentType":5126,
			"count":210,
			"type":"VEC3"
		},
		{
			"bufferView":25,
			"componentType":5126,
			"count":210,
			"type":"VEC2"
		},
		{
			"bufferView":26,
			"componentType":5123,
			"count":690,
			"type":"SCALAR"
		},
		{
			"bufferView":27,
			"componentType":5126,
			"count":210,
			"max":[
				1,
				1,
				0.7071067690849304
			],
			"min":[
				-4.371138828673793e-08,
				-1,
				-0.9807852506637573
			],
			"type":"VEC3"
		},
		{
			"bufferView":28,
			"componentType":5126,
			"count":210,
			"type":"VEC3"
		},
		{
			"bufferView":29,
			"componentType":5126,
			"count":210,
			"type":"VEC2"
		},
		{
			"bufferView":30,
			"componentType":5126,
			"count":172,
			"max":[
				0.002046432578936219,
				1,
				1
			],
			"min":[
				-0.9807852506637573,
				-1,
				-1.0433511832275144e-09
			],
			"type":"VEC3"
		},
		{
			"bufferView":31,
			"componentType":5126,
			"count":172,
			"type":"VEC3"
		},
		{
			"bufferView":32,
			"componentType":5126,
			"count":172,
			"type":"VEC2"
		}
	],
	"bufferViews":[
		{
			"buffer":0,
			"byteLength":1716,
			"byteOffset":0,
			"target":34962
		},
		{
			"buffer":0,
			"byteLength":1716,
			"byteOffset":1716,
			"target":34962
		},
		{
			"buffer":0,
			"byteLength":1144,
			"byteOffset":3432,
			"target":34962
		},
		{
			"buffer":0,
			"byteLength":1080,
			"byteOffset":4576,
			"target":34963
		},
		{
			"buffer":0,
			"byteLength":809364,
			"byteOffset":5656,
			"target":34962
		},
		{
			"buffer":0,
			"byteLength":809364,
			"byteOffset":815020,
			"target":34962
		},
		{
			"buffer":0,
			"byteLength":539576,
			"byteOffset":1624384,
			"target":34962
		},
		{
			"buffer":0,
			"byteLength":796140,
			"byteOffset":2163960,
			"target":34963
		},
		{
			"buffer":0,
			"byteLength":225948,
			"byteOffset":2960100,
			"target":34962
		},
		{
			"buffer":0,
			"byteLength":225948,
			"byteOffset":3186048,
			"target":34962
		},
		{
			"buffer":0,
			"byteLength":150632,
			"byteOffset":3411996,
			"target":34962
		},
		{
			"buffer":0,
			"byteLength":99594,
			"byteOffset":3562628,
			"target":34963
		},
		{
			"buffer":0,
			"byteLength":5856,
			"byteOffset":3662224,
			"target":34962
		},
		{
			"buffer":0,
			"byteLength":5856,
			"byteOffset":3668080,
			"target":34962
		},
		{
			"buffer":0,
			"byteLength":3904,
			"byteOffset":3673936,
			"target":34962
		},
		{
			"buffer":0,
			"byteLength":3624,
			"byteOffset":3677840,
			"target":34963
		},
		{
			"buffer":0,
			"byteLength":1716,
			"byteOffset":3681464,
			"target":34962
		},
		{
			"buffer":0,
			"byteLength":1716,
			"byteOffset":3683180,
			"target":34962
		},
		{
			"buffer":0,
			"byteLength":1144,
			"byteOffset":3684896,
			"target":34962
		},
		{
			"buffer":0,
			"byteLength":2064,
			"byteOffset":3686040,
			"target":34962
		},
		{
			"buffer":0,
			"byteLength":2064,
			"byteOffset":3688104,
			"target":34962
		},
		{
			"buffer":0,
			"byteLength":1376,
			"byteOffset":3690168,
			"target":34962
		},
		{
			"buffer":0,
			"byteLength":1188,
			"byteOffset":3691544,
			"target":34963
		},
		{
			"buffer":0,
			"byteLength":2520,
			"byteOffset":3692732,
			"target":34962
		},
		{
			"buffer":0,
			"byteLength":2520,
			"byteOffset":3695252,
			"target":34962
		},
		{
			"buffer":0,
			"byteLength":1680,
			"byteOffset":3697772,
			"target":34962
		},
		{
			"buffer":0,
			"byteLength":1380,
			"byteOffset":3699452,
			"target":34963
		},
		{
			"buffer":0,
			"byteLength":2520,
			"byteOffset":3700832,
			"target":34962
		},
		{
			"buffer":0,
			"byteLength":2520,
			"byteOffset":3703352,
			"target":34962
		},
		{
			"buffer":0,
			"byteLength":1680,
			"byteOffset":3705872,
			"target":34962
		},
		{
			"buffer":0,
			"byteLength":2064,
			"byteOffset":3707552,
			"target":34962
		},
		{
			"buffer":0,
			"byteLength":2064,
			"byteOffset":3709616,
			"target":34962
		},
		{
			"buffer":0,
			"byteLength":1376,
			"byteOffset":3711680,
			"target":34962
		}
	],
	"buffers":[
		{
			"byteLength":3713056,
			"uri":"Cake11.bin"
		}
	]
}
